<svg height="296" width="325" xmlns="http://www.w3.org/2000/svg">

 <g>
  <title>background</title>
  <rect fill="none" height="298" id="canvas_background" width="327" x="-1" y="-1"/>
 </g>
 <g>
  <circle cx="165" cy="151" fill="#000000" id="svg_44" r="126.574089"/>
  <title>Layer 1</title>
  <path d="m53.97522,149.788315c0,-60.516434 49.869019,-109.534756 111.435699,-109.534756c61.566696,0 111.43573,49.018322 111.43573,109.534756c0,60.516464 -49.869034,109.534866 -111.43573,109.534866c-61.566681,0 -111.435699,-49.018402 -111.435699,-109.534866z"/>
  <path d="m53.97522,149.788315c0,-60.516434 49.869019,-109.534756 111.435699,-109.534756c61.566696,0 111.43573,49.018322 111.43573,109.534756c0,60.516464 -49.869034,109.534866 -111.43573,109.534866c-61.566681,0 -111.435699,-49.018402 -111.435699,-109.534866z" fill="#ffffff" id="svg_46" transform="rotate(-1.13218, 165.41, 149.788)"/>
  <text fill="#000000" font-family="Sans-serif" font-size="63" font-weight="bold" id="svg_45" stroke-width="0" text-anchor="middle" transform="matrix(1.89768, 0, 0, 2.10959, -68.9152, -97.6438)" x="121.526942" xml:space="preserve" y="141.259738">PR</text>
 </g>
</svg>
