<?xml version="1.0" encoding="UTF-8"?>
<svg xmlns="http://www.w3.org/2000/svg" width="15pt" height="15pt"
     viewBox="0 0 10 10" version="1.1">
<g id="surface1">
<path style=" stroke:none;fill-rule:nonzero;fill:rgb(0%,0%,0%);fill-opacity:1;" d="M 5 0 C 4.886719 0 4.796875 0.0898438 4.796875 0.203125 C 4.796875 0.316406 4.886719 0.40625 5 0.40625 C 7.53125 0.40625 9.59375 2.46875 9.59375 5 C 9.59375 7.53125 7.53125 9.59375 5 9.59375 C 2.46875 9.59375 0.40625 7.53125 0.40625 5 C 0.40625 3.277344 1.359375 1.714844 2.890625 0.917969 C 2.988281 0.867188 3.027344 0.746094 2.976562 0.644531 C 2.925781 0.546875 2.800781 0.507812 2.703125 0.558594 C 1.035156 1.421875 0 3.125 0 5 C 0 7.757812 2.242188 10 5 10 C 7.757812 10 10 7.757812 10 5 C 10 2.242188 7.757812 0 5 0 Z M 5 0 "/>
<path style=" stroke:none;fill-rule:nonzero;fill:rgb(0%,0%,0%);fill-opacity:1;" d="M 6.960938 2.425781 C 6.394531 1.992188 5.714844 1.761719 5 1.761719 C 3.214844 1.761719 1.761719 3.214844 1.761719 5 C 1.761719 6.785156 3.214844 8.238281 5 8.238281 C 5.863281 8.238281 6.675781 7.898438 7.289062 7.289062 C 7.367188 7.210938 7.367188 7.082031 7.289062 7 C 7.210938 6.921875 7.082031 6.921875 7 7 C 6.464844 7.535156 5.753906 7.828125 5 7.828125 C 3.441406 7.828125 2.171875 6.558594 2.171875 5 C 2.171875 3.441406 3.441406 2.171875 5 2.171875 C 6.25 2.171875 7.367188 3.007812 7.71875 4.207031 C 7.75 4.316406 7.863281 4.378906 7.96875 4.347656 C 8.078125 4.316406 8.140625 4.203125 8.109375 4.09375 C 7.917969 3.4375 7.507812 2.84375 6.960938 2.425781 Z M 6.960938 2.425781 "/>
<path style=" stroke:none;fill-rule:nonzero;fill:rgb(0%,0%,0%);fill-opacity:1;" d="M 7.386719 4.382812 C 7.304688 4.304688 7.175781 4.304688 7.097656 4.382812 C 7.019531 4.464844 7.019531 4.59375 7.097656 4.671875 L 7.863281 5.4375 C 7.902344 5.476562 7.953125 5.496094 8.007812 5.496094 C 8.0625 5.496094 8.113281 5.476562 8.152344 5.4375 L 8.917969 4.671875 C 8.996094 4.59375 8.996094 4.464844 8.917969 4.382812 C 8.835938 4.304688 8.707031 4.304688 8.628906 4.382812 L 8.007812 5.003906 Z M 7.386719 4.382812 "/>
</g>
</svg>
